{
  "accessors": [
    {
      "bufferView": 2,
      "componentType": 5126,
      "count": 1165,
      "max": [
        2630.0,
        1760.0,
        2350.0
      ],
      "min": [
        -2630.0,
        -1760.0,
        776.5
      ],
      "type": "VEC3"
    },
    {
      "bufferView": 2,
      "byteOffset": 13980,
      "componentType": 5126,
      "count": 1165,
      "max": [
        1.0,
        1.0,
        1.0
      ],
      "min": [
        -1.0,
        -1.0,
        -1.0
      ],
      "type": "VEC3"
    },
    {
      "bufferView": 3,
      "componentType": 5126,
      "count": 1165,
      "max": [
        1.0,
        1.0,
        1.0,
        1.0
      ],
      "min": [
        -1.0,
        -1.0,
        -1.0,
        -1.0
      ],
      "type": "VEC4"
    },
    {
      "bufferView": 1,
      "componentType": 5126,
      "count": 1165,
      "max": [
        4.384856700897217,
        -0.0010948125272989273
      ],
      "min": [
        -5.644622325897217,
        -0.9467332363128662
      ],
      "type": "VEC2"
    },
    {
      "bufferView": 0,
      "componentType": 5125,
      "count": 3096,
      "type": "SCALAR"
    },
    {
      "bufferView": 2,
      "byteOffset": 27960,
      "componentType": 5126,
      "count": 2824,
      "max": [
        2708.0,
        1864.0,
        2508.0
      ],
      "min": [
        -2708.0,
        -1864.0,
        861.5
      ],
      "type": "VEC3"
    },
    {
      "bufferView": 2,
      "byteOffset": 61848,
      "componentType": 5126,
      "count": 2824,
      "max": [
        1.0,
        1.0,
        1.0
      ],
      "min": [
        -1.0,
        -1.0,
        -1.0
      ],
      "type": "VEC3"
    },
    {
      "bufferView": 3,
      "byteOffset": 18640,
      "componentType": 5126,
      "count": 2824,
      "max": [
        1.0,
        1.0,
        0.9993629455566406,
        1.0
      ],
      "min": [
        -1.0,
        -1.0,
        -0.9952116012573242,
        -1.0
      ],
      "type": "VEC4"
    },
    {
      "bufferView": 1,
      "byteOffset": 9320,
      "componentType": 5126,
      "count": 2824,
      "max": [
        0.9228515625,
        -0.00014460086822509766
      ],
      "min": [
        0.048919677734375,
        -0.296142578125
      ],
      "type": "VEC2"
    },
    {
      "bufferView": 0,
      "byteOffset": 12384,
      "componentType": 5125,
      "count": 5916,
      "type": "SCALAR"
    },
    {
      "bufferView": 2,
      "byteOffset": 95736,
      "componentType": 5126,
      "count": 12598,
      "max": [
        2602.0,
        1717.0,
        1722.0
      ],
      "min": [
        -2602.0,
        -1717.0,
        -0.02239990234375
      ],
      "type": "VEC3"
    },
    {
      "bufferView": 2,
      "byteOffset": 246912,
      "componentType": 5126,
      "count": 12598,
      "max": [
        1.0,
        1.0,
        1.0
      ],
      "min": [
        -1.0,
        -1.0,
        -1.0
      ],
      "type": "VEC3"
    },
    {
      "bufferView": 3,
      "byteOffset": 63824,
      "componentType": 5126,
      "count": 12598,
      "max": [
        1.0,
        1.0,
        1.0,
        1.0
      ],
      "min": [
        -1.0,
        -1.0,
        -1.0,
        -1.0
      ],
      "type": "VEC4"
    },
    {
      "bufferView": 1,
      "byteOffset": 31912,
      "componentType": 5126,
      "count": 12598,
      "max": [
        3.2265625,
        0.0004875659942626953
      ],
      "min": [
        -1.8896484375,
        -0.99462890625
      ],
      "type": "VEC2"
    },
    {
      "bufferView": 0,
      "byteOffset": 36048,
      "componentType": 5125,
      "count": 23934,
      "type": "SCALAR"
    }
  ],
  "asset": {
    "extras": {
      "author": "LsWaterPipe (https://sketchfab.com/LsWaterPipe)",
      "license": "CC-BY-NC-SA-4.0 (http://creativecommons.org/licenses/by-nc-sa/4.0/)",
      "source": "https://sketchfab.com/3d-models/chinese-hall-42672df3ccfd4215b5e4c7f4968c0969",
      "title": "Chinese Hall"
    },
    "generator": "Sketchfab-12.68.0",
    "version": "2.0"
  },
  "bufferViews": [
    {
      "buffer": 0,
      "byteLength": 131784,
      "name": "floatBufferViews",
      "target": 34963
    },
    {
      "buffer": 0,
      "byteLength": 132696,
      "byteOffset": 131784,
      "byteStride": 8,
      "name": "floatBufferViews",
      "target": 34962
    },
    {
      "buffer": 0,
      "byteLength": 398088,
      "byteOffset": 264480,
      "byteStride": 12,
      "name": "floatBufferViews",
      "target": 34962
    },
    {
      "buffer": 0,
      "byteLength": 265392,
      "byteOffset": 662568,
      "byteStride": 16,
      "name": "floatBufferViews",
      "target": 34962
    }
  ],
  "buffers": [
    {
      "byteLength": 927960,
      "uri": "scene.bin"
    }
  ],
  "images": [
    {
      "uri": "textures/Material.010_baseColor.png"
    },
    {
      "uri": "textures/Material.010_normal.png"
    },
    {
      "uri": "textures/Material.012_baseColor.png"
    },
    {
      "uri": "textures/Material.012_metallicRoughness.png"
    },
    {
      "uri": "textures/Material.012_normal.png"
    },
    {
      "uri": "textures/Material.011_baseColor.png"
    },
    {
      "uri": "textures/Material.011_normal.png"
    }
  ],
  "materials": [
    {
      "doubleSided": true,
      "name": "Material.010",
      "normalTexture": {
        "index": 1
      },
      "pbrMetallicRoughness": {
        "baseColorTexture": {
          "index": 0
        },
        "metallicFactor": 0.0,
        "roughnessFactor": 0.8042929062619704
      }
    },
    {
      "doubleSided": true,
      "name": "Material.012",
      "normalTexture": {
        "index": 4
      },
      "pbrMetallicRoughness": {
        "baseColorTexture": {
          "index": 2
        },
        "metallicRoughnessTexture": {
          "index": 3
        },
        "roughnessFactor": 0.5185247675853808
      }
    },
    {
      "doubleSided": true,
      "name": "Material.011",
      "normalTexture": {
        "index": 6
      },
      "pbrMetallicRoughness": {
        "baseColorTexture": {
          "index": 5
        },
        "metallicFactor": 0.0,
        "roughnessFactor": 0.8346937720786288
      }
    }
  ],
  "meshes": [
    {
      "name": "HZ_building_116_0_Material.010_0",
      "primitives": [
        {
          "attributes": {
            "NORMAL": 1,
            "POSITION": 0,
            "TANGENT": 2,
            "TEXCOORD_0": 3
          },
          "indices": 4,
          "material": 0,
          "mode": 4
        }
      ]
    },
    {
      "name": "HZ_building_116_2_Material.012_0",
      "primitives": [
        {
          "attributes": {
            "NORMAL": 6,
            "POSITION": 5,
            "TANGENT": 7,
            "TEXCOORD_0": 8
          },
          "indices": 9,
          "material": 1,
          "mode": 4
        }
      ]
    },
    {
      "name": "HZ_building_116_1_Material.011_0",
      "primitives": [
        {
          "attributes": {
            "NORMAL": 11,
            "POSITION": 10,
            "TANGENT": 12,
            "TEXCOORD_0": 13
          },
          "indices": 14,
          "material": 2,
          "mode": 4
        }
      ]
    }
  ],
  "nodes": [
    {
      "children": [
        1
      ],
      "matrix": [
        1.0,
        0.0,
        0.0,
        0.0,
        0.0,
        2.220446049250313e-16,
        -1.0,
        0.0,
        0.0,
        1.0,
        2.220446049250313e-16,
        0.0,
        0.0,
        0.0,
        0.0,
        1.0
      ],
      "name": "Sketchfab_model"
    },
    {
      "children": [
        2
      ],
      "matrix": [
        1.0,
        0.0,
        0.0,
        0.0,
        0.0,
        0.0,
        1.0,
        0.0,
        0.0,
        -1.0,
        0.0,
        0.0,
        0.0,
        0.0,
        0.0,
        1.0
      ],
      "name": "16ecee0b714e4bd3bb446e749ccd327f.fbx"
    },
    {
      "children": [
        3,
        5,
        7
      ],
      "name": "RootNode"
    },
    {
      "children": [
        4
      ],
      "matrix": [
        1.0,
        0.0,
        0.0,
        0.0,
        0.0,
        -1.6292067939183141e-07,
        -0.9999999999999868,
        0.0,
        0.0,
        0.9999999999999868,
        -1.6292067939183141e-07,
        0.0,
        0.0,
        0.0,
        0.0,
        1.0
      ],
      "name": "HZ_building_116_0"
    },
    {
      "mesh": 0,
      "name": "HZ_building_116_0_Material.010_0"
    },
    {
      "children": [
        6
      ],
      "matrix": [
        1.0,
        0.0,
        0.0,
        0.0,
        0.0,
        -1.6292067939183141e-07,
        -0.9999999999999868,
        0.0,
        0.0,
        0.9999999999999868,
        -1.6292067939183141e-07,
        0.0,
        0.0,
        0.0,
        0.0,
        1.0
      ],
      "name": "HZ_building_116_2"
    },
    {
      "mesh": 1,
      "name": "HZ_building_116_2_Material.012_0"
    },
    {
      "children": [
        8
      ],
      "matrix": [
        1.0,
        0.0,
        0.0,
        0.0,
        0.0,
        -1.6292067939183141e-07,
        -0.9999999999999868,
        0.0,
        0.0,
        0.9999999999999868,
        -1.6292067939183141e-07,
        0.0,
        0.0,
        0.0,
        0.0,
        1.0
      ],
      "name": "HZ_building_116_1"
    },
    {
      "mesh": 2,
      "name": "HZ_building_116_1_Material.011_0"
    }
  ],
  "samplers": [
    {
      "magFilter": 9729,
      "minFilter": 9987,
      "wrapS": 10497,
      "wrapT": 10497
    }
  ],
  "scene": 0,
  "scenes": [
    {
      "name": "Sketchfab_Scene",
      "nodes": [
        0
      ]
    }
  ],
  "textures": [
    {
      "sampler": 0,
      "source": 0
    },
    {
      "sampler": 0,
      "source": 1
    },
    {
      "sampler": 0,
      "source": 2
    },
    {
      "sampler": 0,
      "source": 3
    },
    {
      "sampler": 0,
      "source": 4
    },
    {
      "sampler": 0,
      "source": 5
    },
    {
      "sampler": 0,
      "source": 6
    }
  ]
}
